<svg xmlns="http://www.w3.org/2000/svg" viewBox="0 0 500 500"><g id="freepik--Character_3--inject-61"><g><g><path d="M342.662,196.988s-2.476-.803-3.279,.623c-.803,1.426-.258,3.723-.258,3.723,0,0-2.897-.765-2.162,2.841,0,0-2.983,1.494-.836,3.99,0,0,2.197,7.094,4.734,7.728l7.074-1.956,.201-11.066-5.474-5.883Z" style="fill:#b97964;"></path><path d="M386.107,255.422s-32.183-14.292-35.044-18.234c-2.861-3.941-3.269-26.21-3.269-26.21l-7.496,.527s-4.62,23.855,.052,32.475c4.673,8.619,32.489,20.185,32.489,20.185l13.268-8.743Z" style="fill:#b97964;"></path><path d="M356.827,236.125l-8.543,21.681,3.809,.932,16.21,3.944,.832-1.704c3.486-7.137,8.353-13.512,14.32-18.754h0l-26.628-6.099Z" style="fill:#AD00CF;"></path><path d="M317.882,147.755c9.953,14.242,20.391,29.271,22.757,46.924,2.462,18.374-6.672,35.963-4.627,54.302,.884,7.931,4.069,15.846,10.314,21.05,.368,.307,.902-.221,.53-.53-13.997-11.664-10.594-31.779-7.577-47.427,1.658-8.598,3.221-17.322,2.268-26.105-.894-8.239-3.655-16.17-7.322-23.566-4.384-8.843-10.055-16.956-15.695-25.027-.274-.393-.925-.018-.648,.379h0Z" style="fill:#263238;"></path><g><path d="M323.255,107.285c-1.341-2.177-2.896-4.213-4.644-6.079l.888-.827c1.802,1.935,3.407,4.044,4.79,6.298l-1.033,.608Z" style="fill:#AD00CF;"></path><path d="M314.076,97.145c-5.555-4.204-12.55-6.036-19.453-5.094l-.182-1.216c7.24-1.014,14.586,.898,20.413,5.313l-.778,.997Z" style="fill:#AD00CF;"></path><path d="M320.665,108.878c-8.693-14.128-23.343-17.483-34.602-10.553-11.258,6.93-14.857,21.52-6.2,35.647,8.328,13.52,25.678,22.942,37.009,17.629-.25,1.328,.001,2.701,.705,3.854l5.24-3.234c-.711-1.149-1.825-1.99-3.125-2.359,9.897-7.733,9.301-27.465,.973-40.985Z" style="fill:#AD00CF;"></path><path d="M316.909,152.112c-.111,0-.218-.039-.304-.109-.225-.17-.269-.491-.099-.715v-.002c.172-.219,1.716-2.213,3.308-1.933,.28,.05,.47,.314,.426,.596-.049,.278-.314,.463-.592,.414h-.004c-.839-.147-1.982,1.093-2.322,1.543-.097,.131-.25,.208-.413,.207Z" style="fill:#263238;"></path></g><path d="M340.853,124.195c-2.681,18.194,.605,36.429,1.664,54.608,.267,4.584,.405,9.169,.128,13.756-.272,4.509-.835,8.993-1.31,13.483-.903,8.53-1.03,16.972,.097,25.489s3.405,17.067,7.974,24.431c.254,.409,.903,.033,.648-.379-4.146-6.683-6.376-14.351-7.584-22.074-1.291-8.25-1.436-16.565-.646-24.87,.42-4.412,.994-8.808,1.364-13.225,.377-4.491,.432-8.964,.24-13.465-.383-8.976-1.422-17.905-2.142-26.856-.822-10.216-1.208-20.525,.292-30.699,.07-.472-.653-.676-.723-.199h0Z" style="fill:#263238;"></path><g><path d="M369.739,93.204c2.327-16.021-6.548-27.7-19.317-29.552-12.769-1.852-24.592,6.825-26.946,22.823-2.22,15.337,4.882,33.249,16.693,36.359-1.018,.838-1.689,2.024-1.883,3.328l5.948,.856c.186-1.305-.122-2.632-.865-3.721,12.251,.399,24.149-14.754,26.369-30.092Z" style="fill:#AD00CF;"></path><path d="M369.739,93.204c2.327-16.021-6.548-27.7-19.317-29.552-12.769-1.852-24.592,6.825-26.946,22.823-2.22,15.337,4.882,33.249,16.693,36.359-1.018,.838-1.689,2.024-1.883,3.328l5.948,.856c.186-1.305-.122-2.632-.865-3.721,12.251,.399,24.149-14.754,26.369-30.092Z" style="opacity:.3;"></path><g style="opacity:.3;"><path d="M354.445,72.958c-2.105-4.534-8.613-6.762-15.47-4.349-2.736,1.238-5.659,4.413-7.152,7.019-1.492,2.606-1.795,3.716-2.521,6.631-.736,2.955-1.135,6.942-.748,9.962,.448,3.499,2.282,6.842,5.128,8.927s6.692,2.816,10.044,1.718c3.352-1.099,6.071-4.075,6.66-7.553,.38-2.242-.083-4.529-.293-6.793-.209-2.265-.114-4.713,1.201-6.568,1.067-1.504,2.851-2.486,3.572-4.184,.648-1.526,.276-3.306-.423-4.81Z" style="fill:#fff;"></path></g><path d="M339.878,123.239c-.082-.07-.139-.166-.159-.272-.062-.268,.105-.536,.374-.598h.002c.264-.058,2.668-.586,3.687,.62,.179,.213,.155,.529-.054,.713-.21,.177-.525,.15-.702-.06l-.003-.003c-.537-.634-2.169-.42-2.705-.296-.154,.037-.318-.001-.439-.104Z" style="fill:#263238;"></path></g><path d="M345.452,264.004c-3.441-13.267-4.615-27.066-4.218-40.744,.408-14.066,2.481-28.113,6.231-41.678,2.047-7.406,4.612-14.67,7.786-21.67,.198-.436-.448-.818-.648-.379-5.699,12.567-9.496,25.962-11.757,39.559-2.338,14.062-3.075,28.443-1.872,42.656,.641,7.571,1.847,15.097,3.756,22.454,.121,.467,.845,.269,.723-.199h0Z" style="fill:#263238;"></path><g><path d="M389.696,145.364c8.078-11.456,5.806-23.952-3.325-30.388-9.131-6.436-21.661-4.373-29.751,7.054-7.727,10.97-9.268,27.582-1.369,34.614-1.114,.248-2.097,.9-2.758,1.831l4.257,2.993c.655-.934,.938-2.08,.791-3.212,9.301,5.112,24.428-1.921,32.155-12.891Z" style="fill:#AD00CF;"></path><path d="M389.696,145.364c8.078-11.456,5.806-23.952-3.325-30.388-9.131-6.436-21.661-4.373-29.751,7.054-7.727,10.97-9.268,27.582-1.369,34.614-1.114,.248-2.097,.9-2.758,1.831l4.257,2.993c.655-.934,.938-2.08,.791-3.212,9.301,5.112,24.428-1.921,32.155-12.891Z" style="fill:#fff; opacity:.3;"></path><path d="M354.867,156.842c-.036-.086-.042-.182-.016-.273,.057-.231,.291-.372,.523-.315h.002c.227,.06,2.289,.595,2.602,1.925,.055,.234-.088,.469-.321,.529-.232,.054-.464-.09-.519-.322v-.003c-.167-.7-1.51-1.175-1.973-1.289-.134-.032-.245-.125-.298-.252Z" style="fill:#263238;"></path></g><path d="M348.386,209.6s1.914-3.882,1.398-6.368-4.707-5.374-5.244-8.059c-.537-2.685-.631-2.432-1.92-2.049-1.289,.384-1.263,3.932-.614,5.797,.649,1.866,1.795,2.385,1.329,3.647-.466,1.262-2.558,5.365,1.103,7.102s3.947-.071,3.947-.071Z" style="fill:#b97964;"></path></g><g><path d="M361.153,328.96s-9.361,52.653-9.253,70.951c.108,18.298-2.698,37.968-2.698,37.968l10.065,.163s8.431-27.816,9.034-35.902c.604-8.086,10.929-57.8,10.929-57.8l-18.078-15.38Z" style="fill:#b97964;"></path><path d="M390.167,328.96s4.593,52.192,8.261,70.119c3.668,17.927,10.739,38.798,10.739,38.798l9.905-1.799s-3.14-29.956-4.122-38.005c-.982-8.049-1.328-65.96-1.328-65.96l-23.455-3.153Z" style="fill:#b97964;"></path><path d="M391.595,440.083c4.185-.476,9.588-3.336,12.652-5.767-1.508-7.319-.631-7.664,1.191-7.319,2.183,.413,5.06,4.857,5.06,4.857,7.532-3.598,10.539,1.259,10.539,1.259,3.469,11.315,2.782,10.27-2.022,11.185-4.167,.192-6.166,.076-11.418,.362-3.222,.192-9.573,.877-14.02,.447-4.446-.431-3.902-4.814-1.981-5.024Z" style="fill:#263238;"></path><path d="M332.785,440.083c4.185-.476,9.588-3.336,12.652-5.767-1.508-7.319-.631-7.664,1.19-7.319,2.183,.413,5.06,4.857,5.06,4.857,7.532-3.598,10.539,1.259,10.539,1.259,3.469,11.315,2.782,10.27-2.022,11.185-4.167,.192-6.166,.076-11.418,.362-3.222,.192-9.573,.877-14.02,.447-4.446-.431-3.902-4.814-1.981-5.024Z" style="fill:#263238;"></path><path d="M366.053,299.538c-7.164,23.257-11.506,41.609-13.924,61.068l28.184,.994,4.245-15.999,2.938,15.999h30.363s1.011-40.953-.809-53.171c-1.82-12.217-6.958-11.854-6.958-11.854l-44.039,2.963Z" style="fill:#263238;"></path></g><path d="M360.137,306.795l61.53,1.716s.483-14.221-.733-35.012c-.403-6.768-.972-14.239-1.818-22.139-.265-2.623-.619-6.618-2.619-8.428,0,0-15.599-7.612-44.817,2.705,0,0-6.086,34.484-11.544,61.158Z" style="fill:#AD00CF;"></path><path d="M360.137,306.795l61.53,1.716s.483-14.221-.733-35.012c-.403-6.768-.972-14.239-1.818-22.139-.265-2.623-.619-6.618-2.619-8.428,0,0-15.599-7.612-44.817,2.705,0,0-6.086,34.484-11.544,61.158Z" style="fill:#fff; opacity:.3;"></path><g><path d="M402.369,222.916c-1.393,3.235-1.993,6.469-2.725,9.914-.546,2.299-.178,6.097,.175,8.433l-16.483,5.008c2.656-8.337,3.632-13.732-.923-17.25-6.192-4.894,19.956-6.106,19.956-6.106Z" style="fill:#b97964;"></path><path d="M376.031,195.664s-6.245,5.92-2.95,13.923c3.295,8.003,13.348-9.483,13.348-9.483l-10.398-4.44Z" style="fill:#263238;"></path><path d="M409.266,210.58c-2.646,11.19-3.542,17.875-10.918,22.594-11.093,7.139-25.949-.612-27.122-12.407-1.115-10.612,3.416-27.104,16.609-29.564,13.192-2.46,24.065,8.219,21.431,19.376Z" style="fill:#b97964;"></path><path d="M389.129,214.189c-.09,1.141-.783,2.028-1.538,1.95-.755-.078-1.242-1.056-1.17-2.192,.072-1.136,.795-2.021,1.547-1.952,.753,.069,1.224,1.061,1.161,2.194Z" style="fill:#263238;"></path><path d="M377.61,211.243c-.1,1.143-.792,2.03-1.538,1.95-.746-.08-1.244-1.065-1.172-2.201,.072-1.136,.788-2.01,1.538-1.95,.75,.06,1.254,1.063,1.172,2.201Z" style="fill:#263238;"></path><path d="M387.314,205.742c-.083-.113-.133-.247-.144-.386,.037-.373,.364-.649,.738-.624,2.175,.1,4.16,1.268,5.304,3.121,.178,.322,.062,.728-.26,.906l-.006,.003h0c-.328,.17-.731,.055-.918-.263h0c-.947-1.455-2.548-2.352-4.283-2.403-.185-.056-.34-.183-.431-.354Z" style="fill:#263238;"></path><path d="M373.208,203.916c-.134-.041-.253-.121-.341-.229-.195-.32-.098-.737,.219-.937,1.822-1.19,4.109-1.415,6.128-.604,.337,.149,.489,.543,.34,.879l-.009,.02h0c-.167,.328-.559,.472-.899,.33h0c-1.623-.619-3.446-.402-4.879,.579-.183,.067-.386,.053-.559-.038Z" style="fill:#263238;"></path><path d="M380.043,214.613l-3.564,2.285s.747,1.434,3.896,2.067l-.331-4.352Z" style="fill:#a24e3f;"></path><path d="M410.987,202.709s3.669-7.45-4.349-11.234c-2.412-1.132-7.59-5.876-10.722-8.861-1.538-1.465-4.169-.434-4.175,1.691v.047c-1.6-.773-3.165-1.616-4.689-2.527-2.859-1.708-6.548-.801-8.425,1.95-1.378,2.02-2.522,4.258-2.256,5.851l-1.711-.883c-1.65-.852-3.442,.87-2.655,2.552,1.806,3.86,4.89,8.641,9.166,8.934,7.234,.495,13.977-2.026,13.944,7.673-.033,9.699,5.544,11.664,5.544,11.664l.435,1.5c.95,3.276,.26,7.781-1.247,10.841-.661,1.341,10.615-7.296,13.436-16.386,3.077-9.914-2.297-12.811-2.297-12.811Z" style="fill:#263238;"></path><path d="M398.67,216.831s3.158-6.186,6.316-3.966c3.159,2.22,1.805,12.805-3.081,12.484-4.886-.321-5.671-5.237-3.236-8.518Z" style="fill:#b97964;"></path><path d="M379.026,222.673c.042,1.369,1.184,3.689,1.735,4.475l.843-.12c3.786-.554,5.372-2.075,5.976-3.597,.416-1.183,.405-2.475-.03-3.651-1.844,1.506-5.317,2.297-7.249,2.657-.769,.181-1.275,.237-1.275,.237Z" style="fill:#263238;"></path><path d="M380.327,222.459l.551,1.315c3.583-.543,6.038-1.406,7.004-2.655-.046-.45-.156-.892-.325-1.313-1.826,1.501-5.298,2.292-7.23,2.652Z" style="fill:#fff;"></path><path d="M381.611,227.055c3.786-.554,5.372-2.075,5.976-3.597-1.446,.242-2.837,.739-4.109,1.468-.827,.5-1.479,1.244-1.867,2.13Z" style="fill:#c15854;"></path><path d="M402.235,222.511c-.062,0-.125-.023-.173-.07-.1-.096-.104-.254-.008-.354,1.398-1.455,2.037-4.043,.759-5.576-.088-.106-.074-.264,.032-.352,.105-.088,.263-.075,.353,.032,1.497,1.795,.759,4.638-.782,6.243-.05,.051-.115,.077-.181,.077Z" style="opacity:.3;"></path></g><g><path d="M409.396,256.873s9.16,31.618,8.065,36.037c-1.095,4.419-16.772,18.12-16.772,18.12l4.891,5.043s19.839-11.061,23.188-19.593c3.349-8.531-5.131-35.385-5.131-35.385l-14.241-4.222Z" style="fill:#b97964;"></path><path d="M416.498,242.932c-12.975-1.645-13.53,20.41-6.246,37.336l23.428-8.701s-9.645-27.679-17.182-28.634Z" style="fill:#AD00CF;"></path><path d="M404.335,310.095s-2.804-1.496-5.31-.725c-2.506,.771-4.718,.727-6.54,1.428-1.822,.701-.521,2.152,.901,2.353,1.421,.202,4.225-.128,3.905,.903-.32,1.031-7.173,7.344-7.452,8.824-.279,1.48,1.154,.804,1.154,.804,0,0-1.526,1.427-1.162,2.388,.364,.96,1.596,.35,1.596,.35,0,0-.99,.994-.198,1.608,.792,.614,7.501-4.525,7.892-4.563,0,0-4.434,2.54-4.203,3.801,.23,1.262,2.773-.023,4.822-1.004,2.05-.982,4.053-2.898,5.395-4.775,1.674-2.342,4.535-5.16,3.284-7.526-1.251-2.366-4.082-3.865-4.082-3.865Z" style="fill:#b97964;"></path></g></g></g><g id="freepik--Character_2--inject-61"><g><g><path d="M272.73,242.646c-.582-.539,25.427-7.746,25.427-7.746l19.968-21.206s7.058,5.017,6.985,4.602c-.073-.415-10.758,22.793-18.939,27.801-8.181,5.009-28.39,12.188-28.39,12.188l-5.051-15.639Z" style="fill:#e9b376;"></path><path d="M322.41,200.665s2.401-.778,3.18,.604c.779,1.383,.25,3.61,.25,3.61,0,0,2.809-.742,2.097,2.755,0,0,2.893,1.449,.81,3.869,0,0-2.13,6.879-4.59,7.493l-6.86-1.897-.195-10.73,5.308-5.705Z" style="fill:#e9b376;"></path><path d="M334.395,225.625c-1.065-8.497-6.95-15.327-13.87-19.94-8.454-5.636-18.505-8.102-27.77-12.021-8.288-3.506-16.69-8.628-20.937-16.883-3.004-5.837-3.323-12.698-4.868-18.984-.959-3.903-2.321-7.726-4.415-11.173-2.432-4.005-5.765-7.307-9.601-9.973-.397-.276-.773,.374-.379,.648,6.875,4.779,11.222,11.493,13.37,19.522,1.624,6.07,1.971,12.561,4.359,18.412,3.13,7.667,9.961,13.049,17.127,16.762,8.86,4.589,18.694,6.885,27.599,11.376,8.8,4.437,17.341,11.937,18.634,22.255,.059,.473,.81,.478,.75,0h0Z" style="fill:#263238;"></path><path d="M316.859,212.895s-1.856-3.765-1.356-6.175c.5-2.41,4.564-5.211,5.085-7.814,.521-2.603,.611-2.359,1.862-1.986s1.224,3.813,.595,5.622c-.629,1.809-1.741,2.313-1.289,3.536,.452,1.224,2.48,5.203-1.07,6.886-3.55,1.684-3.827-.068-3.827-.068Z" style="fill:#e9b376;"></path><path d="M246.196,99.097c-1.977-1.544-4.105-2.886-6.351-4.005l.534-1.064c2.319,1.164,4.517,2.556,6.56,4.156l-.743,.913Z" style="fill:#AD00CF;"></path><path d="M234.285,92.908c-6.548-1.968-13.609-1.262-19.637,1.964l-.583-1.056c6.314-3.408,13.725-4.161,20.595-2.091l-.375,1.183Z" style="fill:#AD00CF;"></path><path d="M244.358,101.448c-12.827-10.025-27.452-8.103-35.439,2.121-7.988,10.224-6.31,24.876,6.483,34.913,12.284,9.59,31.465,12.327,40.073,3.565,.224,1.307,.925,2.484,1.966,3.304l3.715-4.767c-1.046-.814-2.359-1.207-3.681-1.102,6.461-10.497-.834-28.446-13.117-38.036Z" style="fill:#AD00CF;"></path><path d="M255.683,142.505c-.102,.037-.214,.038-.317,.003-.265-.08-.415-.359-.335-.624v-.002c.082-.26,.821-2.622,2.382-2.909,.275-.05,.539,.129,.595,.403,.05,.272-.13,.533-.403,.583h-.004c-.822,.153-1.449,1.685-1.608,2.215-.044,.153-.159,.277-.31,.331Z" style="fill:#263238;"></path><g style="opacity:.3;"><path d="M228.687,102.865c-3.487-3.451-10.235-3.276-15.718,1.288-2.094,2.075-3.698,5.994-4.179,8.902-.482,2.908-.381,4.033-.053,6.962,.333,2.97,1.329,6.774,2.718,9.421,1.608,3.066,4.439,5.514,7.769,6.459,3.331,.945,7.119,.303,9.828-1.854,2.708-2.157,4.192-5.824,3.545-9.225-.417-2.193-1.625-4.138-2.592-6.149-.967-2.012-1.716-4.296-1.14-6.453,.467-1.749,1.773-3.261,1.856-5.07,.074-1.626-.877-3.136-2.033-4.28Z" style="fill:#fff;"></path></g></g><g><path d="M253.8,438.309c1.264,.116,2.492,0,2.945-.487,.24-.284,.273-.69,.081-1.009-.136-.293-.388-.515-.696-.614-1.588-.591-5.194,1.055-5.344,1.159-.094,.036-.151,.132-.139,.232,.007,.094,.072,.173,.162,.197,.979,.264,1.98,.439,2.991,.522Zm1.727-1.762c.15,.011,.299,.042,.441,.093,.186,.056,.341,.186,.429,.359,.139,.313,.069,.44,0,.522-.51,.591-2.991,.382-4.8,0,1.233-.58,2.569-.911,3.93-.974h0Z" style="fill:#AD00CF;"></path><path d="M250.855,437.764h.104c1.229-.417,3.768-2.319,3.686-3.478,0-.267-.174-.614-.8-.73-.464-.095-.946,.005-1.333,.278-1.333,.916-1.843,3.478-1.866,3.64-.01,.082,.02,.164,.081,.22,.031,.04,.077,.065,.127,.069Zm2.759-3.756h.139c.417,.081,.429,.255,.429,.301,0,.684-1.704,2.203-2.968,2.817,.207-1.109,.754-2.126,1.565-2.91,.243-.169,.54-.243,.835-.209h0Z" style="fill:#AD00CF;"></path><polygon points="238.996 441.845 248.804 442.738 254.786 419.358 240.771 417.966 238.996 441.845" style="fill:#e9b376;"></polygon><path d="M249.94,436.303l-10.712-.974c-.405-.035-.781,.215-.904,.603l-2.724,8.544c-.246,.755,.167,1.566,.922,1.812,.107,.035,.218,.057,.33,.066,3.872,.278,7.269,.371,12.138,.811,5.68,.51,4.173,1.055,10.828,1.762,4.023,.417,5.17-4.092,3.478-4.463-7.709-1.693-8.312-4.116-11.06-7.188-.618-.597-1.436-.944-2.295-.974Z" style="fill:#263238;"></path><path d="M271.653,314.311c1.415,18.09,.98,36.277-1.298,54.278-3.93,31.023-15.407,58.73-15.407,58.73l-16.334-4.278s3.802-23.29,5.796-53.942c2.214-33.399-7.303-57.965-7.303-57.965l34.547,3.177Z" style="fill:#263238;"></path><path d="M177.808,409.222c.707,1.055,1.542,1.959,2.237,1.982,.375-.002,.708-.238,.835-.591,.129-.296,.129-.632,0-.927-.556-1.6-4.115-3.339-4.266-3.408-.08-.056-.187-.056-.267,0-.069,.07-.092,.174-.058,.267,.422,.938,.93,1.835,1.519,2.678Zm2.458,.22c.087,.121,.158,.254,.209,.394,.077,.182,.077,.386,0,.568-.151,.302-.301,.336-.406,.325-.777,0-2.191-2.064-3.014-3.721,1.219,.599,2.31,1.43,3.211,2.446v-.012Z" style="fill:#AD00CF;"></path><path d="M176.313,406.614l.07,.07c1.159,.684,4.208,1.426,5.02,.649,.197-.185,.359-.522,0-1.09-.219-.416-.601-.723-1.055-.846-1.553-.452-3.895,.823-4,.881-.069,.042-.112,.116-.116,.197,.01,.054,.039,.103,.081,.139Zm4.637-.267l.07,.116c.197,.371,.081,.487,0,.533-.498,.464-2.782,.081-4.069-.51,.992-.539,2.124-.761,3.246-.638,.323,.058,.613,.236,.811,.498h-.058Z" style="fill:#AD00CF;"></path><polygon points="165.659 400.052 171.212 408.191 192.11 398.336 184.949 386.574 165.659 400.052" style="fill:#e9b376;"></polygon><path d="M176.892,404.979l-6.063-8.892c-.227-.334-.657-.465-1.032-.313l-8.335,3.339c-.738,.293-1.098,1.129-.805,1.867,.041,.102,.093,.199,.155,.289,2.249,3.165,5.599,7.674,8.347,11.697,3.223,4.718,.858,1.808,4.637,7.338,2.319,3.339,6.295,1.959,5.646,.348-2.956-7.315-2.458-9.274-1.843-13.286,.074-.857-.179-1.71-.707-2.388Z" style="fill:#263238;"></path><path d="M253.035,312.618s-7.222,28.983-20.937,54.348c-15.013,27.823-45.294,36.634-45.294,36.634l-9.413-14.271s19.87-14.851,29.724-31.927c9.077-32.066,12.091-47.844,12.091-47.844l33.828,3.06Z" style="fill:#263238;"></path><path d="M191.291,403.658c0,.069-6.411,2.782-6.411,2.782l-10.515-17.39,4.997-3.675,11.929,18.282Z" style="fill:#AD00CF;"></path><path d="M258.113,424.374c.081,0-1.936,6.724-1.936,6.724l-20.091-2.933,.348-6.202,21.679,2.411Z" style="fill:#AD00CF;"></path></g><g><path d="M269.293,262.97c10.5,6.696,27.153-8.211,27.153-8.211l-4.152-18.769s-18.46,2.341-30.106,2.685c-11.298,3.689-1.511,18.79,7.104,24.295Z" style="fill:#AD00CF;"></path><path d="M278.493,250.688c.545,9.274,.924,35.122,1.904,66.809l-64.668-4.59c.336-7.443,10.051-32.599,7.698-66.08-.381-4.986,3.351-9.337,8.337-9.718,.115-.009,.23-.015,.346-.02,2.585-.093,5.449-.116,8.254,0,7.462,.225,14.905,.875,22.293,1.948,2.84,.522,5.599,1.217,7.964,1.89,4.443,1.233,7.608,5.158,7.872,9.761Z" style="fill:#AD00CF;"></path></g><g><path d="M214.326,279.682c-.498-.4-.952-.848-1.383-1.318,2.903-3.967,5.889-7.867,8.965-11.69,1.6-1.913,3.2-3.872,4.834-5.796l2.446-2.875,2.388-2.736-10.874-10.341c-1.09,1.124-1.982,2.11-2.91,3.142-.927,1.032-1.809,2.087-2.678,3.142-1.75,2.122-3.42,4.289-5.031,6.504-1.611,2.214-3.13,4.475-4.637,6.77-1.507,2.296-2.91,4.649-4.266,7.025l-.255,.452-.464,.846c-.369,.714-.664,1.464-.881,2.238-.449,1.695-.477,3.474-.081,5.182,.35,1.401,.955,2.725,1.785,3.907,.631,.903,1.358,1.735,2.168,2.481,1.298,1.18,2.73,2.203,4.266,3.049,1.331,.75,2.705,1.42,4.116,2.006,2.639,1.082,5.351,1.976,8.115,2.678,2.699,.707,5.441,1.241,8.208,1.6l2.006-7.118c-4.507-2.141-8.889-4.537-13.123-7.176-.939-.608-1.845-1.265-2.713-1.971Z" style="fill:#e9b376;"></path><path d="M230.382,237.24c-12.486,0-24.496,19.917-24.496,19.917l12.323,19.917s8.057-8.857,15.778-18.282c7.547-9.228,6.643-21.551-3.605-21.551Z" style="fill:#AD00CF;"></path><path d="M228.709,289.317s2.086-2.398,4.702-2.571c2.616-.173,4.667-1.004,6.619-.999,1.952,.005,1.254,1.824-.002,2.52-1.256,.695-3.993,1.388-3.326,2.236,.666,.849,9.321,4.302,10.109,5.585,.789,1.283-.791,1.163-.791,1.163,0,0,1.934,.789,1.937,1.816,.003,1.027-1.366,.896-1.366,.896,0,0,1.28,.575,.759,1.431-.521,.856-8.621-1.552-9-1.447,0,0,5.048,.791,5.283,2.051s-2.598,.968-4.863,.782c-2.265-.186-4.82-1.261-6.743-2.536-2.399-1.59-6.078-3.203-5.753-5.86,.325-2.657,2.435-5.067,2.435-5.067Z" style="fill:#e9b376;"></path></g><g><path d="M257.733,230.487c-.147,2.259,.613,4.484,2.113,6.181,.267,.279,.546,.571,.85,.838,.471,.409,.975,.778,1.506,1.105h0c-.12,.223-.248,.44-.382,.651-2.91,4.579-9.126,5.724-13.718,2.834l-6.503-4.092h0c1.843-4.093,2.264-4.492,.421-8.585-.896-2.091-2.127-4.023-3.643-5.719l14.425,.741,6.569,.328c-.948,1.767-1.507,3.718-1.639,5.719Z" style="fill:#e9b376;"></path><path d="M259.333,224.768l-6.569-.328-14.426-.741c1.516,1.696,9.725,8.889,19.443,8.383-.053-.356-.074-.954-.088-1.596,.132-2.002,.691-3.952,1.639-5.719Z" style="isolation:isolate; opacity:.2;"></path><path d="M255.097,185.062s16.245,7.637,4.355,23.401c-13.432,17.834-4.355-23.401-4.355-23.401Z" style="fill:#263238;"></path><path d="M227.464,211.653c3.429,10.174,12.152,20.166,21.137,19.537,16.507-1.143,21.903-5.716,20.669-17.914-1.063-10.94-9.043-26.659-22.864-26.419-13.821,.24-23.641,10.677-18.942,24.796Z" style="fill:#e9b376;"></path><path d="M258.424,191.567c-4.485,2.94-9.686,4.603-15.044,4.813,0,0-6.059,2.629-2.869,9.386,3.189,6.756-1.278,14.24,.802,23.728,0,0-12.932-.201-19.699-20.424-4.927-14.736,6.63-23.87,20.086-27.013,11.26-2.629,21.229,3.43,16.725,9.511Z" style="fill:#263238;"></path><path d="M251.634,208.612c.377,1.303,1.395,2.172,2.286,1.898,.892-.274,1.223-1.52,.835-2.824-.389-1.303-1.395-2.149-2.286-1.909-.892,.24-1.223,1.532-.835,2.835Z" style="fill:#263238;"></path><path d="M261.911,204.999c.366,1.246,1.337,2.069,2.149,1.818,.812-.251,1.143-1.452,.812-2.698-.331-1.246-1.337-2.058-2.161-1.829-.823,.229-1.166,1.463-.8,2.709Z" style="fill:#263238;"></path><path d="M253.44,200.941c.072-.104,.111-.228,.114-.354-.036-.337-.337-.582-.674-.549-1.974,.141-3.752,1.244-4.756,2.949-.154,.297-.037,.663,.261,.816l.014,.007h0c.304,.137,.662,.018,.823-.274h0c.825-1.343,2.256-2.197,3.83-2.286,.165-.049,.304-.159,.389-.309Z" style="fill:#263238;"></path><path d="M263.717,198.472c.112-.063,.207-.153,.274-.263,.127-.316-.019-.676-.331-.812-1.805-.811-3.893-.687-5.59,.332-.275,.196-.346,.575-.16,.857h0c.202,.265,.573,.334,.857,.16h0c1.364-.786,3.027-.85,4.447-.171,.175,.031,.355-.006,.503-.103Z" style="fill:#263238;"></path><path d="M260.139,207.702l1.795,5.716c1.411-.439,2.657-1.291,3.578-2.446-1.973-.758-3.793-1.865-5.373-3.27Z" style="fill:#d58745;"></path><path d="M240.747,214.968s-4.47-5.602-7.19-2.709c-2.721,2.892,.812,13.295,5.716,11.969,4.904-1.326,4.607-6.459,1.475-9.26Z" style="fill:#e9b376;"></path><path d="M262.825,215.86c-.494,1.571-.877,3.176-1.143,4.801h-.869c-3.944,0-5.716-1.337-6.585-2.789-.383-.703-.594-1.486-.617-2.286-.024-.461,.018-.923,.126-1.372,2.081,1.257,5.716,1.566,7.728,1.646,.869,.011,1.36,0,1.36,0Z" style="fill:#263238;"></path><path d="M261.488,215.825l-.366,1.406c-3.715,0-6.333-.549-7.488-1.68-.024-.461,.018-.923,.126-1.372,2.081,1.257,5.762,1.566,7.728,1.646Z" style="fill:#fff;"></path><path d="M260.836,220.661c-3.944,0-5.716-1.337-6.585-2.789,1.497,.043,2.975,.349,4.367,.903,.917,.384,1.692,1.043,2.218,1.886Z" style="fill:#c15854;"></path><path d="M255.006,181.301c3.029-3.761,1.2-6.859,1.2-6.859,0,0,5.407,4.127,4.15,10.072l3.578-3.498s3.315,15.742-20.577,15.364l-5.601-6.539c2.218-4.493,14.221-4.779,17.251-8.539Z" style="fill:#263238;"></path><path d="M249.087,179.806c.045-.636,.026-1.287,.21-1.898,.185-.611,.631-1.195,1.258-1.317,.446-.087,.904,.073,1.311,.276,1.496,.747,2.65,2.149,3.095,3.761,.445,1.612,.174,3.407-.726,4.816l-8.561,.839c1.966-1.563,3.235-3.972,3.414-6.477Z" style="fill:#263238;"></path></g></g></g><g id="freepik--Character_1--inject-61"><g><g><path d="M131.687,213.778c.364,1.191,1.289,1.962,2.06,1.724,.771-.238,1.107-1.401,.757-2.564-.35-1.163-1.289-1.962-2.06-1.724-.771,.238-1.121,1.387-.757,2.564Z" style="fill:#263238;"></path><path d="M132.264,214.613c1.599,2.027,3.468,3.826,5.555,5.345-.82,1.058-2.064,1.701-3.401,1.76l-2.154-7.105Z" style="fill:#892b29;"></path><path d="M127.071,211.726c.149-.043,.281-.131,.378-.252,1.08-1.504,2.815-2.4,4.666-2.41,.378,.137,.796-.059,.933-.438,.137-.378-.059-.796-.438-.933-.123-.044-.255-.055-.383-.031-2.346-.037-4.563,1.072-5.941,2.971-.244,.32-.182,.777,.138,1.021l.002,.002c.191,.125,.431,.151,.645,.07Z" style="fill:#263238;"></path><path d="M111.373,234.351c-.102,7.245-1.37,15.637-5.919,18.869,0,0,1.268,7.818,16.152,9.278,16.356,1.577,8.747-6.88,8.747-6.88-6.939-3.701-6.385-9.017-4.125-14.712l-10.263-9.004c-1.764-1.707-4.563-.208-4.592,2.45Z" style="fill:#9f5b53;"></path><path d="M101.853,221.701c3.896,10.398,5.605,16.689,12.864,20.431,10.902,5.605,23.107-3.377,22.547-14.756-.504-10.244-6.782-25.518-18.918-26.457-12.135-.939-20.389,10.398-16.493,20.781Z" style="fill:#9f5b53;"></path><path d="M126.741,220.227s4.456,9.809-.701,15.344-18.609,5.941-21.874,3.139-16.157-13.859-11.21-28.769c4.947-14.91,20.571-12.457,20.571-12.457-.406-4.512,11.561-2.929,15.737,1.289,4.176,4.218-5.241,7.889-5.241,7.889,0,0,9.389,4.456,2.718,13.565Z" style="fill:#263238;"></path><path d="M121.219,220.944c1.22,2.393,3.188,4.322,5.605,5.493,3.223,1.485,4.89-.995,4.022-4.12-.771-2.803-3.391-7.006-6.656-7.161-3.265-.154-4.428,2.859-2.971,5.787Z" style="fill:#9f5b53;"></path><ellipse cx="95.212" cy="211.845" rx="5.095" ry="6.092" style="fill:#AD00CF;"></ellipse><path d="M93.693,220.952c-.283-5.541,.943-6.199,.793-10.472-4.573-3.381-11.183-2.813-16.127,0s-8.539,7.468-11.748,12.164c-2.021,2.957-4.375,6.265-7.922,6.761-1.34,.188-2.699-.066-4.052-.065-1.353,0-2.823,.325-3.673,1.376-1.514,1.871-.194,4.697,1.515,6.392,3.132,3.106,7.56,4.861,11.969,4.745,4.097-.108,8.109-1.846,11.037-4.709-.596,.944-.466,2.378,.317,3.249,1.003,1.115,2.667,1.406,4.151,1.189,4.57-.669,7.731-5.881,6.634-10.367,.806,1.424,3.313,2.083,4.909,1.717,2.316-.532,3.546-2.582,3.706-4.208,.16-1.629-1.424-6.136-1.507-7.771Z" style="fill:#263238;"></path></g><g><path d="M186.036,290.905c4.063-6.832,4.269-15.138,2.097-22.639-2.423-8.369-7.695-15.477-11.707-23.102-4.153-7.893-6.933-17.125-4.267-25.967,1.744-5.785,5.28-10.888,7.721-16.38,3.23-7.266,4.421-14.899,2.374-22.679-.123-.466-.846-.269-.723,.199,1.916,7.28,.955,14.498-1.974,21.357-2.292,5.369-5.584,10.288-7.607,15.773-2.818,7.639-1.534,15.903,1.538,23.252,3.322,7.948,8.654,14.853,12.093,22.745,3.732,8.562,4.748,18.751-.193,27.062-.247,.416,.401,.793,.648,.379h0Z" style="fill:#263238;"></path><g><g><path d="M202.546,141.414c-2.156-17.276-14.689-26.856-28.457-25.136-13.769,1.72-23.554,14.09-21.433,31.35,2.072,16.537,14.543,33.086,27.678,32.942-.816,1.159-1.174,2.58-1.003,3.988l6.412-.809c-.179-1.406-.877-2.695-1.958-3.612,12.817-3.079,20.834-22.186,18.762-38.723Z" style="fill:#AD00CF;"></path><path d="M180.145,181.074c-.105-.049-.191-.133-.243-.237-.141-.26-.043-.586,.217-.726h.002c.258-.136,2.6-1.369,4-.409,.246,.169,.312,.505,.147,.754-.168,.244-.501,.306-.745,.138l-.004-.003c-.738-.504-2.369,.183-2.89,.464-.149,.083-.33,.089-.485,.018Z" style="fill:#263238;"></path></g><path d="M202.546,141.414c-2.156-17.276-14.689-26.856-28.457-25.136-13.769,1.72-23.554,14.09-21.433,31.35,2.072,16.537,14.543,33.086,27.678,32.942-.816,1.159-1.174,2.58-1.003,3.988l6.412-.809c-.179-1.406-.877-2.695-1.958-3.612,12.817-3.079,20.834-22.186,18.762-38.723Z" style="opacity:.3;"></path></g></g><path d="M104.052,252.24c-.598-2.442-1.221-5.153,1.087-5.593,2.565-.489,15.876,.769,20.223,3.187,2.433,1.289,3.422,4.263,2.247,6.753l-23.557-4.348Z" style="fill:#263238;"></path><path d="M93.252,302.875l-7.132-1.746-5.788,.783,2.051,3.65c1.429,5.776,7.449,7.498,7.449,7.498l2.516,1.331c1.149,.611,2.569,.336,3.407-.659l2.748-3.224c.987-1.177,.834-2.932-.342-3.92l-3.798-3.151c-.321-.272-.702-.465-1.111-.562Z" style="fill:#9f5b53;"></path><g><path d="M118.691,310.629s-6.296,36.203-19.79,61.213c-8.384,15.117-54.704,33.516-54.704,33.516l-3.883-6.399s27.612-25.248,41.283-33.114c7.96-23.455,7.004-58.05,7.004-58.05l30.091,2.833Z" style="fill:#9f5b53;"></path><path d="M47.115,408.9c.782,.965,1.661,1.795,2.357,1.758,.363-.032,.669-.284,.769-.635,.115-.29,.115-.614,0-.904-.672-1.539-4.299-2.98-4.445-3.041-.078-.051-.179-.051-.257,0-.048,.079-.048,.178,0,.256,.453,.897,.98,1.755,1.575,2.565Zm2.442,0c.097,.113,.176,.241,.232,.378,.078,.175,.078,.375,0,.55-.122,.305-.269,.342-.366,.354-.769,0-2.32-1.868-3.249-3.432,1.258,.491,2.405,1.23,3.371,2.174l.012-.024Z" style="fill:#AD00CF;"></path><path d="M45.491,406.433l.073,.061c1.148,.586,4.238,1.087,4.983,.269,.171-.195,.305-.537,0-1.075-.248-.389-.646-.659-1.099-.745-1.563-.33-3.774,1.099-3.859,1.16-.07,.046-.111,.124-.11,.208-.008,.041-.003,.083,.012,.122Zm4.555-.598l.073,.11c.232,.342,.122,.464,.085,.513-.452,.488-2.723,.293-4.03-.195,.932-.606,2.028-.909,3.139-.867,.289,.053,.549,.21,.733,.44h0Z" style="fill:#AD00CF;"></path><path d="M45.906,404.785l-5.08-6.363c-.532-.661-1.457-.855-2.21-.464l-6.704,3.505c-.866,.44-1.211,1.499-.771,2.364,.061,.119,.135,.232,.221,.334,2.113,2.54,4.714,5.483,7.572,9.049,3.505,4.384,.965,1.71,5.08,6.851,2.442,3.102,6.326,1.453,5.569-.073-3.322-6.717-3.114-8.72-2.821-12.481,.016-.976-.284-1.931-.855-2.723Z" style="fill:#263238;"></path><path d="M131.904,311.899c3.37,17.617-.925,36.71-3.146,54.508-3.859,30.53-14.2,67.527-14.2,67.527l-7.678-.665c2.435-33.886-3.628-28.504,1.685-59.558-3.419-27.844-6.141-64.45-6.141-64.45l29.48,2.638Z" style="fill:#9f5b53;"></path><path d="M118.739,434.338c1.221,.11,2.442,0,2.906-.476,.231-.286,.261-.685,.073-1.001-.142-.28-.387-.494-.684-.598-1.563-.586-5.117,1.038-5.263,1.111-.09,.033-.146,.124-.134,.22,.002,.096,.066,.181,.159,.208,.965,.258,1.949,.438,2.943,.537Zm1.697-1.734c.149,.013,.296,.042,.44,.085,.183,.059,.334,.192,.415,.366,.147,.293,.073,.44,0,.513-.501,.586-2.943,.379-4.714,0,1.212-.567,2.523-.894,3.859-.965h0Z" style="fill:#AD00CF;"></path><path d="M115.845,433.801h.098c1.221-.427,3.664-2.308,3.664-3.407,0-.269-.171-.598-.794-.721-.452-.09-.921,.012-1.294,.281-1.331,.891-1.82,3.468-1.844,3.578-.017,.081,.011,.165,.073,.22,.027,.026,.061,.043,.098,.049Zm2.711-3.664h.134c.415,.073,.427,.244,.427,.293,0,.672-1.673,2.174-2.931,2.772,.212-1.089,.753-2.087,1.551-2.858,.231-.186,.522-.281,.818-.269v.061Z" style="fill:#AD00CF;"></path><path d="M114.941,432.372l-8.903-.806c-.675-.065-1.302,.353-1.502,1.001l-2.442,7.95c-.233,.754,.189,1.554,.942,1.787,.091,.028,.184,.047,.279,.057,3.505,.256,5.862,.269,10.612,.696,5.593,.513,4.115,1.05,10.661,1.734,3.969,.415,5.092-4.03,3.419-4.396-7.327-1.6-8.121-3.883-10.6-6.741-.661-.684-1.527-1.134-2.467-1.282Z" style="fill:#263238;"></path><path d="M94.145,305.265c-11.089,7.462-17.399,34.476-33.639,49.938-19.784,11.577-1.931,20.208,21.956,23.167,32.521,4.031,46.699,13.672,49.703,9.492,7.913-11.041,7.3-65.292,.489-77.614-27.501-1.773-38.508-4.983-38.508-4.983Z" style="fill:#AD00CF;"></path></g><path d="M96.887,250.352c-.866,.598-27.904,17.114-24.819,31.796s9.049,22.141,9.049,22.141l5.856-3.3-2.619-20.395,13.878-10.963-1.346-19.278Z" style="fill:#AD00CF;"></path><g><path d="M176.038,261.673s-.702-3.998,.415-6.1,5.649-3.6,6.839-5.876c1.189-2.276,1.207-2.024,2.267-1.339s.103,3.871-.972,5.38-2.243,1.675-2.155,2.933c.088,1.259,.892,5.502-2.86,6.103-3.752,.6-3.534-1.101-3.534-1.101Z" style="fill:#9f5b53;"></path><path d="M184.507,251.825s2.439-.072,2.788,1.423c.348,1.495-.747,3.419-.747,3.419,0,0,2.809,.073,1.2,3.126,0,0,2.293,2.129-.297,3.811,0,0-3.843,5.808-6.293,5.712l-5.854-3.621,2.728-10.014,6.474-3.857Z" style="fill:#9f5b53;"></path><path d="M139.464,260.493c0,15.412-4.598,36.87-7.331,50.406l-37.988-1.637c0-16.631,.858-17.65-1.035-51.844-.236-4.256,3.023-7.898,7.279-8.134,.138-.008,.276-.012,.415-.012,0,0,16.767,1.551,27.978,3.358,4.906,.764,9.8,2.976,10.682,7.862Z" style="fill:#AD00CF;"></path><path d="M138.853,269.015l-10.046-5.418c2.76,6.832,4.174,14.926,8.307,21.026,.323-4.422,1.957-11.18,1.739-15.608Z" style="isolation:isolate; opacity:.2;"></path><path d="M127.361,267.38s27.144,24.143,35.313,22.146c8.169-1.997,19.106-19.804,19.106-19.804l-5.679-6.705-14.619,12.682s-25.278-20.22-25.667-20.519c-.389-.299-15.629-.869-8.453,12.2Z" style="fill:#AD00CF;"></path></g><polygon points="94.145 272.859 92.697 258.554 89.947 276.301 94.145 272.859" style="isolation:isolate; opacity:.2;"></polygon></g></g></svg>
